<mxfile host="Electron" agent="Mozilla/5.0 (Windows NT 10.0; Win64; x64) AppleWebKit/537.36 (KHTML, like Gecko) draw.io/25.0.2 Chrome/128.0.6613.186 Electron/32.2.5 Safari/537.36" version="25.0.2">
  <diagram name="Page-1" id="K1LnZCtGmOpBz1cksO35">
    <mxGraphModel dx="916" dy="989" grid="1" gridSize="10" guides="1" tooltips="1" connect="1" arrows="1" fold="1" page="1" pageScale="1" pageWidth="850" pageHeight="1100" math="0" shadow="0">
      <root>
        <mxCell id="0" />
        <mxCell id="1" parent="0" />
        <mxCell id="RZRXmepCNLdE-8bP11Ws-1" value="" style="rounded=0;whiteSpace=wrap;html=1;" vertex="1" parent="1">
          <mxGeometry x="320" y="150" width="200" height="30" as="geometry" />
        </mxCell>
        <mxCell id="RZRXmepCNLdE-8bP11Ws-2" value="main.cpp исполняемый файл" style="text;html=1;align=center;verticalAlign=middle;resizable=0;points=[];autosize=1;strokeColor=none;fillColor=none;" vertex="1" parent="1">
          <mxGeometry x="325" y="120" width="190" height="30" as="geometry" />
        </mxCell>
        <mxCell id="RZRXmepCNLdE-8bP11Ws-23" style="edgeStyle=orthogonalEdgeStyle;rounded=0;orthogonalLoop=1;jettySize=auto;html=1;endArrow=none;endFill=0;" edge="1" parent="1">
          <mxGeometry relative="1" as="geometry">
            <mxPoint x="420" y="290" as="targetPoint" />
            <mxPoint x="300" y="370" as="sourcePoint" />
            <Array as="points">
              <mxPoint x="300" y="340" />
              <mxPoint x="421" y="340" />
              <mxPoint x="421" y="290" />
            </Array>
          </mxGeometry>
        </mxCell>
        <mxCell id="RZRXmepCNLdE-8bP11Ws-12" value="Логин&lt;div&gt;Зашифрованный пароль&lt;/div&gt;&lt;div&gt;Тип аккаунта&lt;/div&gt;&lt;div&gt;Наличие доступа&lt;/div&gt;" style="swimlane;childLayout=stackLayout;horizontal=1;startSize=90;horizontalStack=0;rounded=1;fontSize=14;fontStyle=0;strokeWidth=2;resizeParent=0;resizeLast=1;shadow=0;dashed=0;align=left;arcSize=6;whiteSpace=wrap;html=1;" vertex="1" parent="1">
          <mxGeometry x="180" y="392" width="210" height="120" as="geometry" />
        </mxCell>
        <mxCell id="RZRXmepCNLdE-8bP11Ws-15" value="accounts.txt" style="text;html=1;align=center;verticalAlign=middle;resizable=0;points=[];autosize=1;strokeColor=none;fillColor=none;" vertex="1" parent="1">
          <mxGeometry x="170" y="360" width="90" height="30" as="geometry" />
        </mxCell>
        <mxCell id="RZRXmepCNLdE-8bP11Ws-24" style="edgeStyle=orthogonalEdgeStyle;rounded=0;orthogonalLoop=1;jettySize=auto;html=1;endArrow=none;endFill=0;" edge="1" parent="1">
          <mxGeometry relative="1" as="geometry">
            <mxPoint x="420" y="290" as="targetPoint" />
            <mxPoint x="570" y="370" as="sourcePoint" />
            <Array as="points">
              <mxPoint x="570" y="340" />
              <mxPoint x="421" y="340" />
              <mxPoint x="421" y="290" />
            </Array>
          </mxGeometry>
        </mxCell>
        <mxCell id="RZRXmepCNLdE-8bP11Ws-16" value="Тип&amp;nbsp;&lt;div&gt;Название&amp;nbsp;&lt;/div&gt;&lt;div&gt;Кол-во квадратных метров&lt;/div&gt;&lt;div&gt;Рассчётная цена&lt;/div&gt;&lt;div&gt;Расстояние до метро&lt;/div&gt;&lt;div&gt;Имя оценщика&lt;/div&gt;&lt;div&gt;Оценка&lt;/div&gt;" style="swimlane;childLayout=stackLayout;horizontal=1;startSize=148;horizontalStack=0;rounded=1;fontSize=14;fontStyle=0;strokeWidth=2;resizeParent=0;resizeLast=1;shadow=0;dashed=0;align=left;arcSize=6;whiteSpace=wrap;html=1;" vertex="1" parent="1">
          <mxGeometry x="440" y="392" width="210" height="178" as="geometry" />
        </mxCell>
        <mxCell id="RZRXmepCNLdE-8bP11Ws-17" value="objects.txt" style="text;html=1;align=center;verticalAlign=middle;resizable=0;points=[];autosize=1;strokeColor=none;fillColor=none;" vertex="1" parent="1">
          <mxGeometry x="435" y="360" width="80" height="30" as="geometry" />
        </mxCell>
        <mxCell id="RZRXmepCNLdE-8bP11Ws-18" value="" style="endArrow=none;html=1;rounded=0;" edge="1" parent="1">
          <mxGeometry width="50" height="50" relative="1" as="geometry">
            <mxPoint x="400" y="280" as="sourcePoint" />
            <mxPoint x="440" y="280" as="targetPoint" />
          </mxGeometry>
        </mxCell>
        <mxCell id="RZRXmepCNLdE-8bP11Ws-19" value="" style="endArrow=none;html=1;rounded=0;" edge="1" parent="1">
          <mxGeometry width="50" height="50" relative="1" as="geometry">
            <mxPoint x="400" y="290" as="sourcePoint" />
            <mxPoint x="440" y="290" as="targetPoint" />
          </mxGeometry>
        </mxCell>
        <mxCell id="RZRXmepCNLdE-8bP11Ws-21" style="edgeStyle=orthogonalEdgeStyle;rounded=0;orthogonalLoop=1;jettySize=auto;html=1;entryX=0.5;entryY=1;entryDx=0;entryDy=0;endArrow=none;endFill=0;" edge="1" parent="1" source="RZRXmepCNLdE-8bP11Ws-20" target="RZRXmepCNLdE-8bP11Ws-1">
          <mxGeometry relative="1" as="geometry" />
        </mxCell>
        <mxCell id="RZRXmepCNLdE-8bP11Ws-20" value="" style="ellipse;whiteSpace=wrap;html=1;aspect=fixed;" vertex="1" parent="1">
          <mxGeometry x="405" y="250" width="30" height="30" as="geometry" />
        </mxCell>
      </root>
    </mxGraphModel>
  </diagram>
</mxfile>
